# WaveFront *.obj file (generated by Autodesk ATF)

mtllib fe6976e4-bbc1-4a2f-9bd6-541585c84d4b.mtl

g Body3

v -100.000000 120.000000 -230.000000
v 100.000000 120.000000 -230.000000
v 100.000000 120.000000 -235.000000
v -100.000000 120.000000 -235.000000
v -100.000000 270.000000 -230.000000
v 100.000000 270.000000 -230.000000
v 100.000000 270.000000 -235.000000
v -110.000000 110.000000 -230.000000
v -110.000000 280.000000 -230.000000
v -110.000000 280.000000 -235.000000
v -110.000000 110.000000 -235.000000
v 110.000000 110.000000 -230.000000
v 110.000000 110.000000 -235.000000
v 110.000000 280.000000 -230.000000
v 110.000000 280.000000 -235.000000
v -100.000000 270.000000 -235.000000
v -657.968813 20.000000 -364.162071
v -657.968813 20.000000 747.151594
v 408.033780 20.000000 747.151594
v 408.033780 20.000000 -364.162071
v -230.000000 20.000000 230.000000
v -230.000000 20.000000 -230.000000
v 230.000000 20.000000 -230.000000
v 230.000000 20.000000 230.000000
v -210.000000 20.000000 -210.000000
v -210.000000 20.000000 210.000000
v 210.000000 20.000000 210.000000
v 210.000000 20.000000 -210.000000
v 408.033780 0.000000 -364.162071
v -657.968813 0.000000 -364.162071
v 408.033780 0.000000 747.151594
v -657.968813 0.000000 747.151594
v 100.000000 120.000000 230.000000
v -100.000000 120.000000 230.000000
v -100.000000 120.000000 235.000000
v 100.000000 120.000000 235.000000
v 100.000000 270.000000 230.000000
v -100.000000 270.000000 230.000000
v 110.000000 110.000000 230.000000
v 110.000000 280.000000 230.000000
v 110.000000 280.000000 235.000000
v 110.000000 110.000000 235.000000
v -110.000000 110.000000 230.000000
v -110.000000 110.000000 235.000000
v -110.000000 280.000000 230.000000
v -110.000000 280.000000 235.000000
v -100.000000 270.000000 235.000000
v 100.000000 270.000000 235.000000
v 230.000000 370.000000 -230.000000
v 0.000000 570.000000 -230.000000
v 0.000000 570.000000 -280.000000
v 305.460552 304.382129 -280.000000
v 305.460552 304.382129 280.000000
v 0.000000 570.000000 280.000000
v 0.000000 570.000000 230.000000
v 230.000000 370.000000 230.000000
v 230.000000 370.000000 210.000000
v 230.000000 370.000000 -210.000000
v -230.000000 370.000000 -230.000000
v -230.000000 370.000000 -210.000000
v -230.000000 370.000000 210.000000
v -230.000000 370.000000 230.000000
v -305.460552 304.382129 280.000000
v -305.460552 304.382129 -280.000000
v -210.000000 370.000000 -210.000000
v -210.000000 370.000000 210.000000
v 210.000000 370.000000 -210.000000
v 210.000000 370.000000 210.000000
v 0.000000 570.000000 -210.000000
v 0.000000 570.000000 210.000000
v -318.584127 319.474239 -280.000000
v 0.000000 596.503914 -280.000000
v 318.584127 319.474239 -280.000000
v 0.000000 596.503914 280.000000
v -318.584127 319.474239 280.000000
v 318.584127 319.474239 280.000000
vt -0.000000 0.000000 0.000000
vt -20.000000 0.000000 0.000000
vt -0.000000 -0.500000 0.000000
vt -20.000000 -0.500000 0.000000
vt 15.000000 7.500000 0.000000
vt -5.000000 7.500000 0.000000
vt 15.000000 -7.500000 0.000000
vt -5.000000 -7.500000 0.000000
vt -0.000000 0.000000 0.000000
vt -15.000000 0.000000 0.000000
vt -0.000000 -0.500000 0.000000
vt -15.000000 -0.500000 0.000000
vt 0.000000 0.000000 0.000000
vt 17.000000 0.000000 0.000000
vt 0.000000 0.500000 0.000000
vt 17.000000 0.500000 0.000000
vt -0.000000 0.000000 0.000000
vt 22.000000 0.000000 0.000000
vt 0.000000 0.500000 0.000000
vt 22.000000 0.500000 0.000000
vt -0.000000 0.000000 0.000000
vt 17.000000 0.000000 0.000000
vt 0.000000 0.500000 0.000000
vt 17.000000 0.500000 0.000000
vt 0.000000 0.000000 0.000000
vt 22.000000 0.000000 0.000000
vt 0.000000 0.500000 0.000000
vt 22.000000 0.500000 0.000000
vt 10.000000 -7.500000 0.000000
vt 11.000000 -8.500000 0.000000
vt 10.000000 7.500000 0.000000
vt 11.000000 8.500000 0.000000
vt -11.000000 8.500000 0.000000
vt -10.000000 -7.500000 0.000000
vt -11.000000 -8.500000 0.000000
vt -10.000000 7.500000 0.000000
vt 55.565683 -53.300130 0.000000
vt 3.850524 -10.503248 0.000000
vt -55.565683 -53.300130 0.000000
vt -42.149476 -10.503248 0.000000
vt -55.565683 53.300130 0.000000
vt -42.149476 35.496752 0.000000
vt 3.850524 35.496752 0.000000
vt 55.565683 53.300130 0.000000
vt -40.149476 -8.503248 0.000000
vt 1.850524 -8.503248 0.000000
vt -40.149476 33.496752 0.000000
vt 1.850524 33.496752 0.000000
vt 0.000000 0.000000 0.000000
vt 106.600259 0.000000 0.000000
vt 0.000000 2.000000 0.000000
vt 106.600259 2.000000 0.000000
vt 0.000000 0.000000 0.000000
vt 111.131367 0.000000 0.000000
vt 0.000000 2.000000 0.000000
vt 111.131367 2.000000 0.000000
vt 0.000000 0.000000 0.000000
vt 106.600259 0.000000 0.000000
vt 0.000000 2.000000 0.000000
vt 106.600259 2.000000 0.000000
vt 0.000000 0.000000 0.000000
vt 111.131367 0.000000 0.000000
vt 0.000000 2.000000 0.000000
vt 111.131367 2.000000 0.000000
vt 53.300130 55.565683 0.000000
vt -53.300130 55.565683 0.000000
vt 53.300130 -55.565683 0.000000
vt -53.300130 -55.565683 0.000000
vt -20.000000 46.000000 0.000000
vt -0.000000 46.000000 0.000000
vt -20.000000 46.500000 0.000000
vt -0.000000 46.500000 0.000000
vt 15.000000 7.500000 0.000000
vt -5.000000 7.500000 0.000000
vt 15.000000 -7.500000 0.000000
vt -5.000000 -7.500000 0.000000
vt 0.000000 0.000000 0.000000
vt 17.000000 0.000000 0.000000
vt 0.000000 0.500000 0.000000
vt 17.000000 0.500000 0.000000
vt 0.000000 0.000000 0.000000
vt 22.000000 0.000000 0.000000
vt 0.000000 0.500000 0.000000
vt 22.000000 0.500000 0.000000
vt -0.000000 0.000000 0.000000
vt 17.000000 0.000000 0.000000
vt -0.000000 0.500000 0.000000
vt 17.000000 0.500000 0.000000
vt -0.000000 0.000000 0.000000
vt 22.000000 0.000000 0.000000
vt -0.000000 0.500000 0.000000
vt 22.000000 0.500000 0.000000
vt -10.000000 7.500000 0.000000
vt -11.000000 -8.500000 0.000000
vt -10.000000 -7.500000 0.000000
vt 11.000000 -8.500000 0.000000
vt 10.000000 -7.500000 0.000000
vt 10.000000 7.500000 0.000000
vt 11.000000 8.500000 0.000000
vt -11.000000 8.500000 0.000000
vt 40.479501 46.000000 0.000000
vt 40.479501 51.000000 0.000000
vt 10.000000 46.000000 0.000000
vt -0.000000 51.000000 0.000000
vt 10.000000 44.000000 0.000000
vt 0.000000 -5.000000 0.000000
vt 10.000000 2.000000 0.000000
vt 10.000000 0.000000 0.000000
vt 40.479501 -5.000000 0.000000
vt 40.479501 0.000000 0.000000
vt -0.000000 46.000000 0.000000
vt 30.479501 46.000000 0.000000
vt -0.000000 51.000000 0.000000
vt 40.479501 51.000000 0.000000
vt 30.479501 44.000000 0.000000
vt 40.479501 -5.000000 0.000000
vt 30.479501 2.000000 0.000000
vt 30.479501 0.000000 0.000000
vt 0.000000 0.000000 0.000000
vt 0.000000 -5.000000 0.000000
vt -21.000000 -23.000000 0.000000
vt 21.000000 -23.000000 0.000000
vt -21.000000 -21.000000 0.000000
vt 21.000000 -21.000000 0.000000
vt -21.000000 21.000000 0.000000
vt 21.000000 21.000000 0.000000
vt -21.000000 23.000000 0.000000
vt 21.000000 23.000000 0.000000
vt 40.479501 44.000000 0.000000
vt 10.000000 44.000000 0.000000
vt 40.479501 2.000000 0.000000
vt 10.000000 2.000000 0.000000
vt 30.479501 44.000000 0.000000
vt -0.000000 44.000000 0.000000
vt 30.479501 2.000000 0.000000
vt -0.000000 2.000000 0.000000
vt -15.000000 46.000000 0.000000
vt -0.000000 46.000000 0.000000
vt -15.000000 46.500000 0.000000
vt -0.000000 46.500000 0.000000
vt -0.000000 0.000000 0.000000
vt -15.000000 0.000000 0.000000
vt -0.000000 -0.500000 0.000000
vt -15.000000 -0.500000 0.000000
vt -20.000000 46.000000 0.000000
vt -0.000000 46.000000 0.000000
vt -20.000000 46.500000 0.000000
vt -0.000000 46.500000 0.000000
vt -0.000000 0.000000 0.000000
vt -20.000000 0.000000 0.000000
vt -0.000000 -0.500000 0.000000
vt -20.000000 -0.500000 0.000000
vt -15.000000 46.000000 0.000000
vt -0.000000 46.000000 0.000000
vt -15.000000 46.500000 0.000000
vt -0.000000 46.500000 0.000000
vt 30.546055 -14.606089 0.000000
vt 31.858413 -13.096878 0.000000
vt 0.000000 11.955698 0.000000
vt -0.000000 14.606089 0.000000
vt -31.858413 -13.096878 0.000000
vt -30.546055 -14.606089 0.000000
vt 0.000000 0.000000 0.000000
vt 42.000000 0.000000 0.000000
vt 0.000000 35.000000 0.000000
vt 42.000000 35.000000 0.000000
vt 0.000000 0.000000 0.000000
vt 42.000000 0.000000 0.000000
vt 0.000000 35.000000 0.000000
vt 42.000000 35.000000 0.000000
vt -0.000000 35.000000 0.000000
vt -0.000000 0.000000 0.000000
vt 2.000000 35.000000 0.000000
vt 46.000000 0.000000 0.000000
vt 44.000000 35.000000 0.000000
vt 46.000000 35.000000 0.000000
vt 0.000000 35.000000 0.000000
vt 0.000000 0.000000 0.000000
vt 2.000000 35.000000 0.000000
vt 46.000000 0.000000 0.000000
vt 44.000000 35.000000 0.000000
vt 46.000000 35.000000 0.000000
vt 31.858413 -13.096878 0.000000
vt 0.000000 14.606089 0.000000
vt 0.000000 11.955698 0.000000
vt -31.858413 -13.096878 0.000000
vt -30.546055 -14.606089 0.000000
vt 30.546055 -14.606089 0.000000
vt 2.000000 51.000000 0.000000
vt 0.000000 51.000000 0.000000
vt 2.000000 -5.000000 0.000000
vt 0.000000 -5.000000 0.000000
vt 2.000000 51.000000 0.000000
vt -0.000000 51.000000 0.000000
vt 2.000000 -5.000000 0.000000
vt 0.000000 -5.000000 0.000000
vt 42.218632 51.000000 0.000000
vt -0.000000 51.000000 0.000000
vt 42.218632 -5.000000 0.000000
vt -0.000000 -5.000000 0.000000
vt 42.218632 51.000000 0.000000
vt 0.000000 51.000000 0.000000
vt 42.218632 -5.000000 0.000000
vt 0.000000 -5.000000 0.000000
vt -23.000000 -10.000000 0.000000
vt -21.000000 -10.000000 0.000000
vt -0.000000 10.000000 0.000000
vt 21.000000 -10.000000 0.000000
vt 23.000000 -10.000000 0.000000
vt -21.000000 -45.000000 0.000000
vt 21.000000 -45.000000 0.000000
vt 11.000000 -36.000000 0.000000
vt 23.000000 -45.000000 0.000000
vt 11.000000 -19.000000 0.000000
vt 23.000000 -10.000000 0.000000
vt 0.000000 10.000000 0.000000
vt -11.000000 -36.000000 0.000000
vt -23.000000 -45.000000 0.000000
vt -11.000000 -19.000000 0.000000
vt -23.000000 -10.000000 0.000000
vt 23.000000 -8.000000 0.000000
vt 0.000000 12.000000 0.000000
vt 21.000000 -8.000000 0.000000
vt -21.000000 -8.000000 0.000000
vt 21.000000 -43.000000 0.000000
vt -21.000000 -43.000000 0.000000
vt -23.000000 -8.000000 0.000000
vt 11.000000 -34.000000 0.000000
vt 23.000000 -43.000000 0.000000
vt 11.000000 -17.000000 0.000000
vt 23.000000 -8.000000 0.000000
vt -0.000000 12.000000 0.000000
vt -11.000000 -34.000000 0.000000
vt -23.000000 -43.000000 0.000000
vt -11.000000 -17.000000 0.000000
vt -23.000000 -8.000000 0.000000
vn -0.000000 0.100000 -0.000000
vn -0.000000 0.100000 -0.000000
vn -0.000000 0.100000 -0.000000
vn -0.000000 0.100000 -0.000000
vn 0.000000 0.000000 -0.100000
vn 0.000000 0.000000 -0.100000
vn 0.000000 0.000000 -0.100000
vn 0.000000 0.000000 -0.100000
vn -0.100000 0.000000 0.000000
vn -0.100000 0.000000 0.000000
vn -0.100000 0.000000 0.000000
vn -0.100000 0.000000 0.000000
vn -0.100000 0.000000 0.000000
vn -0.100000 0.000000 0.000000
vn -0.100000 0.000000 0.000000
vn -0.100000 0.000000 0.000000
vn 0.000000 -0.100000 0.000000
vn 0.000000 -0.100000 0.000000
vn 0.000000 -0.100000 0.000000
vn 0.000000 -0.100000 0.000000
vn 0.100000 -0.000000 0.000000
vn 0.100000 -0.000000 0.000000
vn 0.100000 -0.000000 0.000000
vn 0.100000 -0.000000 0.000000
vn 0.000000 0.100000 0.000000
vn 0.000000 0.100000 0.000000
vn 0.000000 0.100000 0.000000
vn 0.000000 0.100000 0.000000
vn 0.000000 0.000000 -0.100000
vn 0.000000 0.000000 -0.100000
vn 0.000000 0.000000 -0.100000
vn 0.000000 0.000000 -0.100000
vn 0.000000 0.000000 -0.100000
vn 0.000000 0.000000 -0.100000
vn 0.000000 0.000000 -0.100000
vn 0.000000 0.000000 -0.100000
vn 0.000000 0.100000 0.000000
vn 0.000000 0.100000 0.000000
vn 0.000000 0.100000 0.000000
vn 0.000000 0.100000 0.000000
vn 0.000000 0.100000 0.000000
vn 0.000000 0.100000 0.000000
vn 0.000000 0.100000 0.000000
vn 0.000000 0.100000 0.000000
vn 0.000000 0.100000 0.000000
vn 0.000000 0.100000 0.000000
vn 0.000000 0.100000 0.000000
vn 0.000000 0.100000 0.000000
vn 0.000000 0.000000 -0.100000
vn 0.000000 0.000000 -0.100000
vn 0.000000 0.000000 -0.100000
vn 0.000000 0.000000 -0.100000
vn 0.100000 -0.000000 0.000000
vn 0.100000 -0.000000 0.000000
vn 0.100000 -0.000000 0.000000
vn 0.100000 -0.000000 0.000000
vn 0.000000 0.000000 0.100000
vn 0.000000 0.000000 0.100000
vn 0.000000 0.000000 0.100000
vn 0.000000 0.000000 0.100000
vn -0.100000 0.000000 0.000000
vn -0.100000 0.000000 0.000000
vn -0.100000 0.000000 0.000000
vn -0.100000 0.000000 0.000000
vn 0.000000 -0.100000 0.000000
vn 0.000000 -0.100000 0.000000
vn 0.000000 -0.100000 0.000000
vn 0.000000 -0.100000 0.000000
vn -0.000000 0.100000 -0.000000
vn -0.000000 0.100000 -0.000000
vn -0.000000 0.100000 -0.000000
vn -0.000000 0.100000 -0.000000
vn 0.000000 0.000000 0.100000
vn 0.000000 0.000000 0.100000
vn 0.000000 0.000000 0.100000
vn 0.000000 0.000000 0.100000
vn 0.100000 0.000000 0.000000
vn 0.100000 0.000000 0.000000
vn 0.100000 0.000000 0.000000
vn 0.100000 0.000000 0.000000
vn 0.000000 -0.100000 0.000000
vn 0.000000 -0.100000 0.000000
vn 0.000000 -0.100000 0.000000
vn 0.000000 -0.100000 0.000000
vn -0.100000 0.000000 0.000000
vn -0.100000 0.000000 0.000000
vn -0.100000 0.000000 0.000000
vn -0.100000 0.000000 0.000000
vn 0.000000 0.100000 0.000000
vn 0.000000 0.100000 0.000000
vn 0.000000 0.100000 0.000000
vn 0.000000 0.100000 0.000000
vn 0.000000 0.000000 0.100000
vn 0.000000 0.000000 0.100000
vn 0.000000 0.000000 0.100000
vn 0.000000 0.000000 0.100000
vn 0.000000 0.000000 0.100000
vn 0.000000 0.000000 0.100000
vn 0.000000 0.000000 0.100000
vn 0.000000 0.000000 0.100000
vn -0.065618 -0.075461 0.000000
vn -0.065618 -0.075461 0.000000
vn -0.065618 -0.075461 0.000000
vn -0.065618 -0.075461 0.000000
vn -0.065618 -0.075461 0.000000
vn -0.065618 -0.075461 0.000000
vn -0.065618 -0.075461 0.000000
vn -0.065618 -0.075461 0.000000
vn -0.065618 -0.075461 0.000000
vn -0.065618 -0.075461 0.000000
vn 0.065618 -0.075461 0.000000
vn 0.065618 -0.075461 0.000000
vn 0.065618 -0.075461 0.000000
vn 0.065618 -0.075461 0.000000
vn 0.065618 -0.075461 0.000000
vn 0.065618 -0.075461 0.000000
vn 0.065618 -0.075461 0.000000
vn 0.065618 -0.075461 0.000000
vn 0.065618 -0.075461 0.000000
vn 0.065618 -0.075461 0.000000
vn 0.000000 0.100000 0.000000
vn 0.000000 0.100000 0.000000
vn 0.000000 0.100000 0.000000
vn 0.000000 0.100000 0.000000
vn 0.000000 0.100000 0.000000
vn 0.000000 0.100000 0.000000
vn 0.000000 0.100000 0.000000
vn 0.000000 0.100000 0.000000
vn -0.065618 -0.075461 0.000000
vn -0.065618 -0.075461 0.000000
vn 0.065618 -0.075461 0.000000
vn 0.065618 -0.075461 0.000000
vn 0.100000 0.000000 0.000000
vn 0.100000 0.000000 0.000000
vn 0.100000 0.000000 0.000000
vn 0.100000 0.000000 0.000000
vn 0.100000 0.000000 0.000000
vn 0.100000 0.000000 0.000000
vn 0.100000 0.000000 0.000000
vn 0.100000 0.000000 0.000000
vn 0.000000 -0.100000 0.000000
vn 0.000000 -0.100000 0.000000
vn 0.000000 -0.100000 0.000000
vn 0.000000 -0.100000 0.000000
vn 0.000000 -0.100000 0.000000
vn 0.000000 -0.100000 0.000000
vn 0.000000 -0.100000 0.000000
vn 0.000000 -0.100000 0.000000
vn -0.100000 0.000000 0.000000
vn -0.100000 0.000000 0.000000
vn -0.100000 0.000000 0.000000
vn -0.100000 0.000000 0.000000
vn 0.000000 0.000000 -0.100000
vn 0.000000 0.000000 -0.100000
vn 0.000000 0.000000 -0.100000
vn 0.000000 0.000000 -0.100000
vn 0.000000 0.000000 -0.100000
vn 0.000000 0.000000 -0.100000
vn -0.100000 0.000000 0.000000
vn -0.100000 0.000000 0.000000
vn -0.100000 0.000000 0.000000
vn -0.100000 0.000000 0.000000
vn 0.100000 0.000000 0.000000
vn 0.100000 0.000000 0.000000
vn 0.100000 0.000000 0.000000
vn 0.100000 0.000000 0.000000
vn 0.100000 0.000000 0.000000
vn 0.100000 0.000000 0.000000
vn 0.100000 0.000000 0.000000
vn 0.100000 0.000000 0.000000
vn 0.100000 0.000000 0.000000
vn 0.100000 0.000000 0.000000
vn -0.100000 0.000000 0.000000
vn -0.100000 0.000000 0.000000
vn -0.100000 0.000000 0.000000
vn -0.100000 0.000000 0.000000
vn -0.100000 0.000000 0.000000
vn -0.100000 0.000000 0.000000
vn 0.000000 0.000000 0.100000
vn 0.000000 0.000000 0.100000
vn 0.000000 0.000000 0.100000
vn 0.000000 0.000000 0.100000
vn 0.000000 0.000000 0.100000
vn 0.000000 0.000000 0.100000
vn -0.075461 -0.065618 0.000000
vn -0.075461 -0.065618 0.000000
vn -0.075461 -0.065618 0.000000
vn -0.075461 -0.065618 0.000000
vn 0.075461 -0.065618 0.000000
vn 0.075461 -0.065618 0.000000
vn 0.075461 -0.065618 0.000000
vn 0.075461 -0.065618 0.000000
vn 0.065618 0.075461 0.000000
vn 0.065618 0.075461 0.000000
vn 0.065618 0.075461 0.000000
vn 0.065618 0.075461 0.000000
vn -0.065618 0.075461 0.000000
vn -0.065618 0.075461 0.000000
vn -0.065618 0.075461 0.000000
vn -0.065618 0.075461 0.000000
vn 0.000000 0.000000 -0.100000
vn 0.000000 0.000000 -0.100000
vn 0.000000 0.000000 -0.100000
vn 0.000000 0.000000 -0.100000
vn 0.000000 0.000000 -0.100000
vn 0.000000 0.000000 -0.100000
vn 0.000000 0.000000 -0.100000
vn 0.000000 0.000000 0.100000
vn 0.000000 0.000000 0.100000
vn 0.000000 0.000000 0.100000
vn 0.000000 0.000000 0.100000
vn 0.000000 0.000000 0.100000
vn 0.000000 0.000000 0.100000
vn 0.000000 0.000000 0.100000
vn 0.000000 0.000000 0.100000
vn 0.000000 0.000000 0.100000
vn 0.000000 0.000000 0.100000
vn 0.000000 0.000000 0.100000
vn 0.000000 0.000000 0.100000
vn 0.000000 0.000000 0.100000
vn 0.000000 0.000000 0.100000
vn 0.000000 0.000000 0.100000
vn 0.000000 0.000000 0.100000
vn 0.000000 0.000000 -0.100000
vn 0.000000 0.000000 -0.100000
vn 0.000000 0.000000 -0.100000
vn 0.000000 0.000000 -0.100000
vn 0.000000 0.000000 -0.100000
vn 0.000000 0.000000 -0.100000
vn 0.000000 0.000000 -0.100000
vn 0.000000 0.000000 -0.100000
vn 0.000000 0.000000 -0.100000
usemtl 鋼_-_サテン
f 1/1/1 2/2/2 4/3/3
f 4/3/3 2/2/2 3/4/4
f 5/5/5 6/6/6 1/7/7
f 1/7/7 6/6/6 2/8/8
f 2/9/9 6/10/10 3/11/11
f 3/11/11 6/10/10 7/12/12
f 8/13/13 9/14/14 11/15/15
f 11/15/15 9/14/14 10/16/16
f 12/17/17 8/18/18 13/19/19
f 13/19/19 8/18/18 11/20/20
f 14/21/21 12/22/22 15/23/23
f 15/23/23 12/22/22 13/24/24
f 9/25/25 14/26/26 10/27/27
f 10/27/27 14/26/26 15/28/28
f 4/29/29 11/30/30 16/31/31
f 16/31/31 11/30/30 10/32/32
f 16/31/31 10/32/32 15/33/33
f 4/29/29 3/34/34 11/30/30
f 11/30/30 3/34/34 13/35/35
f 13/35/35 3/34/34 7/36/36
f 13/35/35 7/36/36 15/33/33
f 15/33/33 7/36/36 16/31/31
f 18/37/37 21/38/38 17/39/39
f 17/39/39 21/38/38 22/40/40
f 17/39/39 22/40/40 20/41/41
f 20/41/41 22/40/40 23/42/42
f 20/41/41 23/42/42 24/43/43
f 18/37/37 19/44/44 21/38/38
f 21/38/38 19/44/44 24/43/43
f 24/43/43 19/44/44 20/41/41
f 25/45/45 26/46/46 28/47/47
f 28/47/47 26/46/46 27/48/48
f 29/49/49 30/50/50 20/51/51
f 20/51/51 30/50/50 17/52/52
f 31/53/53 29/54/54 19/55/55
f 19/55/55 29/54/54 20/56/56
f 32/57/57 31/58/58 18/59/59
f 18/59/59 31/58/58 19/60/60
f 30/61/61 32/62/62 17/63/63
f 17/63/63 32/62/62 18/64/64
f 30/65/65 29/66/66 32/67/67
f 32/67/67 29/66/66 31/68/68
f 33/69/69 34/70/70 36/71/71
f 36/71/71 34/70/70 35/72/72
f 37/73/73 38/74/74 33/75/75
f 33/75/75 38/74/74 34/76/76
f 39/77/77 40/78/78 42/79/79
f 42/79/79 40/78/78 41/80/80
f 43/81/81 39/82/82 44/83/83
f 44/83/83 39/82/82 42/84/84
f 45/85/85 43/86/86 46/87/87
f 46/87/87 43/86/86 44/88/88
f 40/89/89 45/90/90 41/91/91
f 41/91/91 45/90/90 46/92/92
f 47/93/93 44/94/94 35/95/95
f 35/95/95 44/94/94 42/96/96
f 35/95/95 42/96/96 36/97/97
f 36/97/97 42/96/96 48/98/98
f 48/98/98 42/96/96 41/99/99
f 48/98/98 41/99/99 46/100/100
f 44/94/94 47/93/93 46/100/100
f 46/100/100 47/93/93 48/98/98
f 50/101/101 51/102/102 49/103/103
f 49/103/103 51/102/102 52/104/104
f 49/103/103 52/104/104 58/105/105
f 58/105/105 52/104/104 53/106/106
f 58/105/105 53/106/106 57/107/107
f 57/107/107 53/106/106 56/108/108
f 56/108/108 53/106/106 54/109/109
f 56/108/108 54/109/109 55/110/110
f 50/111/111 59/112/112 51/113/113
f 51/113/113 59/112/112 64/114/114
f 64/114/114 59/112/112 60/115/115
f 64/114/114 60/115/115 63/116/116
f 63/116/116 60/115/115 61/117/117
f 63/116/116 61/117/117 62/118/118
f 55/119/119 54/120/120 62/118/118
f 62/118/118 54/120/120 63/116/116
f 60/121/121 61/122/122 65/123/123
f 65/123/123 61/122/122 66/124/124
f 67/125/125 68/126/126 58/127/127
f 58/127/127 68/126/126 57/128/128
f 69/129/129 58/130/105 70/131/130
f 70/131/130 58/130/105 57/132/107
f 60/133/115 69/134/131 61/135/117
f 61/135/117 69/134/131 70/136/132
f 34/137/133 38/138/134 35/139/135
f 35/139/135 38/138/134 47/140/136
f 5/141/137 1/142/138 16/143/139
f 16/143/139 1/142/138 4/144/140
f 38/145/141 37/146/142 47/147/143
f 47/147/143 37/146/142 48/148/144
f 6/149/145 5/150/146 7/151/147
f 7/151/147 5/150/146 16/152/148
f 37/153/149 33/154/150 48/155/151
f 48/155/151 33/154/150 36/156/152
f 64/157/153 71/158/154 51/159/155
f 51/159/155 71/158/154 72/160/156
f 51/159/155 72/160/156 73/161/157
f 73/161/157 52/162/158 51/159/155
f 28/163/159 27/164/160 67/165/161
f 67/165/161 27/164/160 68/166/162
f 26/167/163 25/168/164 66/169/165
f 66/169/165 25/168/164 65/170/166
f 56/171/167 24/172/168 57/173/169
f 57/173/169 24/172/168 23/174/170
f 57/173/169 23/174/170 58/175/171
f 58/175/171 23/174/170 49/176/172
f 59/177/173 22/178/174 60/179/175
f 60/179/175 22/178/174 21/180/176
f 60/179/175 21/180/176 61/181/177
f 61/181/177 21/180/176 62/182/178
f 76/183/179 74/184/180 54/185/181
f 54/185/181 74/184/180 75/186/182
f 54/185/181 75/186/182 63/187/183
f 54/185/181 53/188/184 76/183/179
f 71/189/185 64/190/186 75/191/187
f 75/191/187 64/190/186 63/192/188
f 52/193/189 73/194/190 53/195/191
f 53/195/191 73/194/190 76/196/192
f 73/197/193 72/198/194 76/199/195
f 76/199/195 72/198/194 74/200/196
f 72/201/197 71/202/198 74/203/199
f 74/203/199 71/202/198 75/204/200
f 57/205/201 68/206/202 70/207/203
f 70/207/203 68/206/202 66/208/204
f 70/207/203 66/208/204 61/209/205
f 27/210/206 26/211/207 68/206/202
f 68/206/202 26/211/207 66/208/204
f 39/212/208 24/213/209 40/214/210
f 40/214/210 24/213/209 56/215/211
f 40/214/210 56/215/211 55/216/212
f 39/212/208 43/217/213 24/213/209
f 24/213/209 43/217/213 21/218/214
f 21/218/214 43/217/213 45/219/215
f 21/218/214 45/219/215 62/220/216
f 62/220/216 45/219/215 55/216/212
f 55/216/212 45/219/215 40/214/210
f 58/221/217 69/222/218 67/223/219
f 67/223/219 69/222/218 65/224/220
f 67/223/219 65/224/220 28/225/221
f 28/225/221 65/224/220 25/226/222
f 69/222/218 60/227/223 65/224/220
f 8/228/224 22/229/225 9/230/226
f 9/230/226 22/229/225 59/231/227
f 9/230/226 59/231/227 50/232/228
f 8/228/224 12/233/229 22/229/225
f 22/229/225 12/233/229 23/234/230
f 23/234/230 12/233/229 14/235/231
f 23/234/230 14/235/231 49/236/232
f 49/236/232 14/235/231 50/232/228
f 50/232/228 14/235/231 9/230/226

# 76 vertices
# 236 texture params
# 232 normals
# 152 facets

# 1 groups
